# xmcd
# Copyright (C) 1995-1998 Ti Kan
#
# Track frame offsets:
#       150
#       25614
#       48222
#       64965
#       81675
#       102821
#       148745
#       162809
#       183912
#       202742
#       220944
#       241085
#       262015
#       292160
#       310049
#
# Disc length: 4390 seconds
#
# Revision: 0
# Processed by: cddbd v1.5.2PL0 Copyright (c) Steve Scherf et al.
# Submitted via: CD-Import v1.0
#
DISCID=d411240f
DTITLE=Mr: - 
DYEAR=1900
DGENRE=
TTITLE0=Mr/Db: 31
TTITLE1=Mr/Db: 32
TTITLE2=Mr/Db: 33
TTITLE3=Mr/Db: 34
TTITLE4=Mr/Db: 35
TTITLE5=Mr/Db: 36
TTITLE6=Mr/Db: 37
TTITLE7=Mr/Db: 38
TTITLE8=Mr/Db: 39
TTITLE9=Mr/Db: 40
TTITLE10=Mr/Db: 41
TTITLE11=Mr/Db: 42
TTITLE12=Mr/Db: 43
TTITLE13=Mr/Db: 44
TTITLE14=Mr/Db: 45
EXTD=
EXTT0=
EXTT1=
EXTT2=
EXTT3=
EXTT4=
EXTT5=
EXTT6=
EXTT7=
EXTT8=
EXTT9=
EXTT10=
EXTT11=
EXTT12=
EXTT13=
EXTT14=
PLAYORDER=
